<svg width="24" height="24" viewBox="0 0 24 24" fill="none" xmlns="http://www.w3.org/2000/svg">
<path d="M14.6729 7.40514H8.73464C8.73464 7.78245 9.03085 8.08924 9.40464 8.10687H10.5401H11.3441H14.6729C15.3323 8.10687 15.8648 8.64287 15.8648 9.29876V14.6693C15.8648 15.3287 15.3288 15.8612 14.6729 15.8612H13.4599V14.0205H14.2991C14.3908 14.0205 14.4825 13.9817 14.5495 13.9182C14.6165 13.8512 14.6518 13.7631 14.6518 13.6678V12.4548C14.6518 12.3631 14.613 12.2714 14.5495 12.2044C14.4825 12.1374 14.3944 12.1022 14.2991 12.1022H13.4599V11.6332H15.0044C15.0961 11.6332 15.1878 11.5944 15.2548 11.5309C15.3218 11.4639 15.357 11.3758 15.357 11.2805V9.95113C15.357 9.85944 15.3182 9.76776 15.2548 9.70076C15.1878 9.63376 15.0996 9.5985 15.0044 9.5985H12.2892C11.6897 9.5985 11.2031 10.0851 11.2031 10.6846V12.1092H10.6741C10.4802 12.1092 10.3215 12.2679 10.3215 12.4619V13.6749C10.3215 13.7701 10.3567 13.8583 10.4237 13.9253C10.4907 13.9923 10.5789 14.0275 10.6741 14.0275H11.2031V15.8612H9.30238C8.64296 15.8612 8.11049 15.3252 8.11049 14.6693V9.39397C8.09285 9.02018 7.78607 8.72397 7.40875 8.72397V9.4116V14.6693C7.40875 15.7166 8.25859 16.5665 9.3059 16.5665H11.5592C11.6509 16.5665 11.7426 16.5277 11.8096 16.4642C11.8766 16.3972 11.9118 16.309 11.9118 16.2138V13.6749C11.9118 13.5797 11.8766 13.4915 11.8096 13.4245C11.7426 13.3575 11.6544 13.3223 11.5592 13.3223H11.0303V12.8145H11.5592C11.7532 12.8145 11.9118 12.6558 11.9118 12.4619V10.6846C11.9118 10.4765 12.0811 10.3038 12.2927 10.3038H14.6553V10.9279H13.1108C13.0191 10.9279 12.9274 10.9667 12.8604 11.0302C12.7934 11.0972 12.7582 11.1853 12.7582 11.2805V12.4548C12.7582 12.5465 12.7969 12.6382 12.8604 12.7052C12.9274 12.7722 13.0156 12.8074 13.1108 12.8074H13.95V13.3152H13.1108C13.0191 13.3152 12.9274 13.354 12.8604 13.4175C12.7934 13.4845 12.7582 13.5726 12.7582 13.6678V16.2138C12.7582 16.3055 12.7969 16.3972 12.8604 16.4642C12.9274 16.5312 13.0156 16.5665 13.1108 16.5665H14.6765C15.7238 16.5665 16.5736 15.7166 16.5736 14.6693V9.29876C16.5736 8.25145 15.7238 7.40161 14.6765 7.40161L14.6729 7.40514Z" fill="#2D6DF6"/>
</svg>
