<svg width="24" height="24" viewBox="0 0 24 24" fill="none" xmlns="http://www.w3.org/2000/svg">
<path d="M14.6729 7.40514H8.67117C8.67117 7.78245 8.96738 8.08924 9.34116 8.10687H10.5401H11.2101H14.6729C15.3323 8.10687 15.8648 8.64287 15.8648 9.29876V14.6693C15.8648 15.3287 15.3288 15.8612 14.6729 15.8612H9.30238C8.64296 15.8612 8.11049 15.3252 8.11049 14.6693V9.37987C8.09285 9.00608 7.78607 8.70987 7.40875 8.70987V9.3975V14.6693C7.40875 15.7166 8.25859 16.5665 9.3059 16.5665H14.6765C15.7238 16.5665 16.5736 15.7166 16.5736 14.6693V9.29876C16.5736 8.25145 15.7238 7.40161 14.6765 7.40161L14.6729 7.40514Z" fill="#2D6DF6"/>
<path d="M11.9894 10.0852C10.9386 10.0852 10.0852 10.9386 10.0852 11.9894C10.0852 13.0402 10.9386 13.8936 11.9894 13.8936C13.0402 13.8936 13.8936 13.0402 13.8936 11.9894C13.8936 10.9386 13.0402 10.0852 11.9894 10.0852ZM11.9894 13.1883C11.3265 13.1883 10.7905 12.6524 10.7905 11.9894C10.7905 11.3265 11.3265 10.7905 11.9894 10.7905C12.6524 10.7905 13.1883 11.3265 13.1883 11.9894C13.1883 12.6524 12.6524 13.1883 11.9894 13.1883Z" fill="#2D6DF6"/>
<path d="M14.4085 10.0994C14.5495 10.0994 14.6835 10.043 14.7822 9.94424C14.881 9.8455 14.9374 9.70797 14.9374 9.57045C14.9374 9.43292 14.881 9.2954 14.7822 9.19666C14.6835 9.09792 14.546 9.0415 14.4085 9.0415C14.2709 9.0415 14.1334 9.09792 14.0347 9.19666C13.9359 9.2954 13.8795 9.43292 13.8795 9.57045C13.8795 9.70797 13.9359 9.8455 14.0347 9.94424C14.1334 10.043 14.2709 10.0994 14.4085 10.0994Z" fill="#2D6DF6"/>
</svg>
