<svg width="24" height="24" viewBox="0 0 24 24" fill="none" xmlns="http://www.w3.org/2000/svg">
<path d="M9.69732 10.0994H7.98001C7.88833 10.0994 7.79664 10.1382 7.72964 10.2016C7.66264 10.2686 7.62738 10.3568 7.62738 10.452V11.9295V12.6171C8.00469 12.6171 8.31148 12.3209 8.32911 11.9471V11.5416V11.2877V10.8082H9.34116V15.4946H8.32911V13.0156C7.9518 13.0156 7.64501 13.3118 7.62738 13.6856V14.0241V14.345V15.8472C7.62738 15.9389 7.66617 16.0306 7.72964 16.0976C7.79664 16.1646 7.8848 16.1999 7.98001 16.1999H9.69732C9.789 16.1999 9.88069 16.1611 9.94769 16.0976C10.0147 16.0306 10.0499 15.9424 10.0499 15.8472V10.4555C10.0499 10.3638 10.0112 10.2722 9.94769 10.2052C9.88069 10.1382 9.79253 10.1029 9.69732 10.1029V10.0994Z" fill="#2D6DF6"/>
<path d="M8.82633 7.14777C8.48075 7.14777 8.14575 7.2853 7.90244 7.53214C7.65207 7.77898 7.51455 8.11398 7.51807 8.46661C7.51807 8.81219 7.6556 9.14718 7.90244 9.3905C8.14928 9.64087 8.48428 9.77839 8.83691 9.77486C9.18249 9.77839 9.51748 9.63734 9.7608 9.3905C10.0112 9.14366 10.1487 8.80866 10.1452 8.45603C10.1487 8.11045 10.0076 7.77545 9.7608 7.53214C9.51396 7.28177 9.17896 7.14424 8.82633 7.14777ZM9.26359 8.89329C9.12959 9.02376 9.01322 9.0696 8.84043 9.07313C8.65354 9.0696 8.53717 9.02024 8.4067 8.89329C8.27975 8.75929 8.23038 8.64292 8.22686 8.47013C8.23038 8.28324 8.27975 8.16687 8.4067 8.0364C8.5407 7.90945 8.65707 7.86008 8.82986 7.85656C9.01675 7.86008 9.13312 7.90945 9.26712 8.0364C9.39406 8.1704 9.44343 8.28677 9.44696 8.45955C9.44343 8.64645 9.39406 8.76282 9.26712 8.89329H9.26359Z" fill="#2D6DF6"/>
<path d="M16.3056 11.1501C16.0799 10.7693 15.7555 10.466 15.357 10.2509C14.955 10.0323 14.5001 9.92651 14.017 9.92651C13.5234 9.92651 13.0473 10.0394 12.6101 10.265C12.5078 10.3179 12.4126 10.3744 12.3209 10.4343C11.9471 10.1346 11.4499 10.0006 10.8645 10.0006C10.7728 10.0006 10.6812 10.0394 10.6142 10.1028C10.5472 10.1698 10.5119 10.258 10.5119 10.3532V15.8436C10.5119 15.9353 10.5507 16.027 10.6142 16.094C10.6812 16.161 10.7693 16.1963 10.8645 16.1963H12.5818C12.6735 16.1963 12.7652 16.1575 12.8322 16.094C12.8992 16.027 12.9345 15.9389 12.9345 15.8436V12.3808C13.0156 12.3315 13.0967 12.2856 13.1813 12.2503C13.2942 12.201 13.4282 12.1763 13.5939 12.1763C13.7138 12.1763 13.8019 12.1939 13.8725 12.2257C13.943 12.2539 13.9959 12.2927 14.0488 12.3526C14.1616 12.4866 14.218 12.6347 14.218 12.8569V15.8472C14.218 15.9389 14.2568 16.0305 14.3203 16.0975C14.3873 16.1645 14.4755 16.1998 14.5707 16.1998H16.2986C16.3902 16.1998 16.4819 16.161 16.5489 16.0975C16.6159 16.0305 16.6512 15.9424 16.6512 15.8472V15.4381V14.1087C16.2739 14.1087 15.9671 14.4402 15.9459 14.814V15.4381V15.4734V15.4945H14.9233V12.8569C14.9233 12.5007 14.8105 12.1587 14.5848 11.8942C14.4649 11.7531 14.3133 11.6438 14.144 11.5733C13.9747 11.5028 13.7878 11.471 13.5939 11.471C13.3506 11.471 13.1178 11.5133 12.9098 11.6015C12.7194 11.6826 12.5395 11.7849 12.3738 11.9118C12.2856 11.9788 12.2327 12.0811 12.2327 12.1939V15.4945H11.2207V10.7305C11.5416 10.7728 11.7673 10.8716 11.9154 11.0056C11.9436 11.0302 11.9753 11.069 12.0212 11.1219C12.1446 11.27 12.3597 11.2912 12.5113 11.1713C12.6453 11.062 12.7864 10.9703 12.938 10.8927C13.2765 10.7199 13.6327 10.6318 14.0206 10.6318C14.4049 10.6318 14.7329 10.7129 15.0256 10.8716C15.3218 11.0338 15.5404 11.2418 15.7061 11.5133C15.8684 11.7849 15.9495 12.0811 15.9495 12.4302V13.5551C16.3268 13.5551 16.6336 13.2589 16.6512 12.8851V12.6982V12.4337C16.6512 11.9718 16.5383 11.5345 16.3091 11.1537L16.3056 11.1501Z" fill="#2D6DF6"/>
</svg>
