<svg width="35" height="32" viewBox="0 0 35 32" fill="none" xmlns="http://www.w3.org/2000/svg">
<path d="M15.6124 1.39048C16.2376 -0.394856 18.7624 -0.394857 19.3876 1.39048L22.1225 9.20057C22.3979 9.98691 23.1318 10.5202 23.9648 10.5391L32.2378 10.7267C34.1289 10.7695 34.9091 13.1708 33.4044 14.3171L26.8217 19.3316C26.1589 19.8365 25.8785 20.6993 26.118 21.4973L28.496 29.4234C29.0397 31.2352 26.997 32.7193 25.4418 31.6424L18.6386 26.9314C17.9536 26.4571 17.0464 26.4571 16.3614 26.9314L9.55818 31.6424C8.003 32.7193 5.96034 31.2352 6.50395 29.4234L8.88202 21.4973C9.12145 20.6993 8.8411 19.8365 8.17834 19.3316L1.59563 14.3171C0.0908666 13.1708 0.871089 10.7695 2.76224 10.7267L11.0352 10.5391C11.8682 10.5202 12.6021 9.98691 12.8775 9.20057L15.6124 1.39048Z" fill="#D9D9D9"/>
</svg>
