<svg width="35" height="32" viewBox="0 0 35 32" fill="none" xmlns="http://www.w3.org/2000/svg">
<path d="M15.8483 1.47311C16.3954 -0.0890648 18.6046 -0.0890651 19.1517 1.47311L21.8866 9.2832C22.1963 10.1678 23.0221 10.7677 23.9591 10.789L32.2321 10.9766C33.8868 11.0141 34.5695 13.1152 33.2529 14.1182L26.6702 19.1327C25.9246 19.7007 25.6092 20.6714 25.8785 21.5692L28.2566 29.4952C28.7323 31.0806 26.9449 32.3791 25.5842 31.4369L18.7809 26.7259C18.0103 26.1923 16.9897 26.1923 16.2191 26.7259L9.41585 31.4369C8.05507 32.3791 6.26774 31.0806 6.7434 29.4952L9.12148 21.5692C9.39084 20.6714 9.07544 19.7007 8.32983 19.1327L1.74713 14.1182C0.430455 13.1152 1.11315 11.0141 2.76791 10.9766L11.0409 10.789C11.9779 10.7677 12.8037 10.1678 13.1134 9.2832L15.8483 1.47311Z" fill="#E3E829" stroke="#3F3F41" stroke-width="0.5"/>
</svg>
