<svg width="24" height="24" viewBox="0 0 24 24" fill="none" xmlns="http://www.w3.org/2000/svg">
<path d="M17.1061 15.4382L13.4493 11.7814L16.1857 9.04151C16.4361 8.76293 16.429 8.33625 16.161 8.07178L15.6885 8.5443L12.7017 11.5311C12.5642 11.6686 12.5642 11.8908 12.7017 12.0283L16.0059 15.3324H14.3838L13.8548 14.8035L13.6291 14.5778L11.8942 12.8429C11.8272 12.7759 11.739 12.7406 11.6438 12.7406C11.5486 12.7406 11.4605 12.7794 11.3935 12.8429L8.382 15.8578C8.13163 16.1364 8.13868 16.5631 8.40668 16.8276L8.8792 16.3551L8.89331 16.341L8.90389 16.3304L11.6438 13.5904L13.1319 15.0785L13.3576 15.3042L13.9923 15.939C14.0593 16.006 14.1475 16.0412 14.2427 16.0412H16.8627C17.0038 16.0412 17.1343 15.9566 17.1872 15.8226C17.2401 15.6886 17.2119 15.5405 17.1096 15.4382H17.1061Z" fill="#2D6DF6"/>
<path d="M10.1663 12.1128C10.4414 12.3632 10.8716 12.3562 11.136 12.0882L10.6635 11.6156L7.99764 8.94975H9.62326L11.6262 10.9527C11.9012 11.2031 12.3315 11.196 12.5959 10.928L12.1234 10.4555L10.0182 8.35028C9.95121 8.28328 9.86305 8.24802 9.77136 8.24802L7.14427 8.24097C7.00322 8.24097 6.87275 8.3256 6.81632 8.4596C6.7599 8.5936 6.79164 8.74523 6.8939 8.84396L10.1663 12.1128Z" fill="#2D6DF6"/>
</svg>
